<mxfile host="app.diagrams.net" modified="2022-08-24T11:05:30.030Z" agent="5.0 (Windows NT 10.0; Win64; x64) AppleWebKit/537.36 (KHTML, like Gecko) Chrome/104.0.0.0 Safari/537.36" etag="QutIO6sOrmhHmdadJIA_" version="20.2.6" type="github">
  <diagram id="3kK8lvuYw4rrIa8dsZuz" name="Page-1">
    <mxGraphModel dx="1021" dy="529" grid="1" gridSize="10" guides="1" tooltips="1" connect="1" arrows="1" fold="1" page="1" pageScale="1" pageWidth="1169" pageHeight="827" math="0" shadow="0">
      <root>
        <mxCell id="0" />
        <mxCell id="1" parent="0" />
        <mxCell id="vbfM_EF4HYv8d9VF-iG4-7" style="edgeStyle=orthogonalEdgeStyle;rounded=0;orthogonalLoop=1;jettySize=auto;html=1;entryX=0;entryY=0.5;entryDx=0;entryDy=0;" edge="1" parent="1" source="vbfM_EF4HYv8d9VF-iG4-1" target="vbfM_EF4HYv8d9VF-iG4-5">
          <mxGeometry relative="1" as="geometry" />
        </mxCell>
        <mxCell id="vbfM_EF4HYv8d9VF-iG4-1" value="datalake-raw" style="sketch=0;outlineConnect=0;fontColor=#232F3E;gradientColor=none;fillColor=#3F8624;strokeColor=none;dashed=0;verticalLabelPosition=bottom;verticalAlign=top;align=center;html=1;fontSize=12;fontStyle=0;aspect=fixed;pointerEvents=1;shape=mxgraph.aws4.bucket_with_objects;" vertex="1" parent="1">
          <mxGeometry x="240" y="160" width="75" height="78" as="geometry" />
        </mxCell>
        <mxCell id="vbfM_EF4HYv8d9VF-iG4-9" style="edgeStyle=orthogonalEdgeStyle;rounded=0;orthogonalLoop=1;jettySize=auto;html=1;startArrow=classic;startFill=1;" edge="1" parent="1" source="vbfM_EF4HYv8d9VF-iG4-2" target="vbfM_EF4HYv8d9VF-iG4-3">
          <mxGeometry relative="1" as="geometry" />
        </mxCell>
        <mxCell id="vbfM_EF4HYv8d9VF-iG4-2" value="datalake-ingested" style="sketch=0;outlineConnect=0;fontColor=#232F3E;gradientColor=none;fillColor=#3F8624;strokeColor=none;dashed=0;verticalLabelPosition=bottom;verticalAlign=top;align=center;html=1;fontSize=12;fontStyle=0;aspect=fixed;pointerEvents=1;shape=mxgraph.aws4.bucket_with_objects;" vertex="1" parent="1">
          <mxGeometry x="560" y="160" width="75" height="78" as="geometry" />
        </mxCell>
        <mxCell id="vbfM_EF4HYv8d9VF-iG4-11" style="edgeStyle=orthogonalEdgeStyle;rounded=0;orthogonalLoop=1;jettySize=auto;html=1;exitX=1;exitY=0.5;exitDx=0;exitDy=0;exitPerimeter=0;startArrow=classic;startFill=1;" edge="1" parent="1" source="vbfM_EF4HYv8d9VF-iG4-3" target="vbfM_EF4HYv8d9VF-iG4-4">
          <mxGeometry relative="1" as="geometry">
            <Array as="points">
              <mxPoint x="818" y="199" />
              <mxPoint x="818" y="520" />
            </Array>
          </mxGeometry>
        </mxCell>
        <mxCell id="vbfM_EF4HYv8d9VF-iG4-3" value="Amazon Athena" style="sketch=0;points=[[0,0,0],[0.25,0,0],[0.5,0,0],[0.75,0,0],[1,0,0],[0,1,0],[0.25,1,0],[0.5,1,0],[0.75,1,0],[1,1,0],[0,0.25,0],[0,0.5,0],[0,0.75,0],[1,0.25,0],[1,0.5,0],[1,0.75,0]];outlineConnect=0;fontColor=#232F3E;gradientColor=#945DF2;gradientDirection=north;fillColor=#5A30B5;strokeColor=#ffffff;dashed=0;verticalLabelPosition=bottom;verticalAlign=top;align=center;html=1;fontSize=12;fontStyle=0;aspect=fixed;shape=mxgraph.aws4.resourceIcon;resIcon=mxgraph.aws4.athena;" vertex="1" parent="1">
          <mxGeometry x="720" y="160" width="78" height="78" as="geometry" />
        </mxCell>
        <mxCell id="vbfM_EF4HYv8d9VF-iG4-4" value="" style="sketch=0;outlineConnect=0;fontColor=#232F3E;gradientColor=none;fillColor=#232F3D;strokeColor=none;dashed=0;verticalLabelPosition=bottom;verticalAlign=top;align=center;html=1;fontSize=12;fontStyle=0;aspect=fixed;pointerEvents=1;shape=mxgraph.aws4.user;" vertex="1" parent="1">
          <mxGeometry x="400" y="480" width="78" height="78" as="geometry" />
        </mxCell>
        <mxCell id="vbfM_EF4HYv8d9VF-iG4-8" style="edgeStyle=orthogonalEdgeStyle;rounded=0;orthogonalLoop=1;jettySize=auto;html=1;exitX=1;exitY=0.5;exitDx=0;exitDy=0;" edge="1" parent="1" source="vbfM_EF4HYv8d9VF-iG4-5" target="vbfM_EF4HYv8d9VF-iG4-2">
          <mxGeometry relative="1" as="geometry">
            <Array as="points">
              <mxPoint x="520" y="360" />
              <mxPoint x="520" y="199" />
            </Array>
          </mxGeometry>
        </mxCell>
        <mxCell id="vbfM_EF4HYv8d9VF-iG4-10" style="edgeStyle=orthogonalEdgeStyle;rounded=0;orthogonalLoop=1;jettySize=auto;html=1;exitX=0.5;exitY=1;exitDx=0;exitDy=0;startArrow=classic;startFill=1;" edge="1" parent="1" source="vbfM_EF4HYv8d9VF-iG4-5" target="vbfM_EF4HYv8d9VF-iG4-4">
          <mxGeometry relative="1" as="geometry" />
        </mxCell>
        <mxCell id="vbfM_EF4HYv8d9VF-iG4-5" value="" style="shape=image;html=1;verticalAlign=top;verticalLabelPosition=bottom;labelBackgroundColor=#ffffff;imageAspect=0;aspect=fixed;image=https://cdn2.iconfinder.com/data/icons/boxicons-logos/24/bxl-python-128.png" vertex="1" parent="1">
          <mxGeometry x="398.5" y="320" width="80" height="80" as="geometry" />
        </mxCell>
        <mxCell id="vbfM_EF4HYv8d9VF-iG4-12" value="AWS Cloud" style="points=[[0,0],[0.25,0],[0.5,0],[0.75,0],[1,0],[1,0.25],[1,0.5],[1,0.75],[1,1],[0.75,1],[0.5,1],[0.25,1],[0,1],[0,0.75],[0,0.5],[0,0.25]];outlineConnect=0;gradientColor=none;html=1;whiteSpace=wrap;fontSize=12;fontStyle=0;container=1;pointerEvents=0;collapsible=0;recursiveResize=0;shape=mxgraph.aws4.group;grIcon=mxgraph.aws4.group_aws_cloud_alt;strokeColor=#232F3E;fillColor=none;verticalAlign=top;align=left;spacingLeft=30;fontColor=#232F3E;dashed=0;" vertex="1" parent="1">
          <mxGeometry x="200" y="120" width="640" height="160" as="geometry" />
        </mxCell>
      </root>
    </mxGraphModel>
  </diagram>
</mxfile>
